cl__1 = 0.8;
cl__2 = 0.1;
Point(2) = {0, 0, 0, cl__1};
Point(4) = {10, 0, 0, cl__1};
Point(5) = {10, 8, 0, cl__1};
Point(6) = {0, 8, 0, cl__1};
Point(7) = {0, 8, 0.5, cl__1};
Point(8) = {0, 0, 0.5, cl__1};
Point(12) = {10, 0, 0.5, cl__1};
Point(15) = {10, 8, 0.5, cl__1};
Point(16) = {0, 8, 3, cl__1};
Point(17) = {0, 0, 3, cl__1};
Point(21) = {10, 0, 3, cl__1};
Point(25) = {10, 8, 3, cl__1};
Point(35) = {0, 8, 3.5, cl__1};
Point(36) = {0, 0, 3.5, cl__1};
Point(40) = {10, 0, 3.5, cl__1};
Point(44) = {10, 8, 3.5, cl__1};
Point(45) = {10, 8, 0.55, cl__1};
Point(46) = {10, 0, 0.55, cl__1};
Point(49) = {0, 0, 0.55, cl__1};
Point(53) = {0, 8, 0.55, cl__1};
Point(54) = {0, 8, 3.05, cl__1};
Point(55) = {10, 8, 3.05, cl__1};
Point(59) = {10, 0, 3.05, cl__1};
Point(62) = {0, 0, 3.05, cl__1};
Point(63) = {2.3, 1.6, 0.55, cl__1};
Point(68) = {2.3, 6.4, 0.55, cl__1};
Point(69) = {2.3, 2.4, 0.55, cl__2};
Point(70) = {3.1, 1.6, 0.55, cl__1};
Point(71) = {3.1, 2.4, 0.55, cl__2};
Point(72) = {2.3, 1.6, 2.45, cl__1};
Point(73) = {3.1, 1.6, 2.45, cl__1};
Point(77) = {2.3, 2.4, 2.45, cl__1};
Point(80) = {3.1, 2.4, 2.45, cl__1};
Point(82) = {3.9, 1.6, 2.45, cl__1};
Point(90) = {3.9, 2.4, 2.45, cl__1};
Point(123) = {3.9, 1.6, 0.55, cl__1};
Point(126) = {3.9, 2.4, 0.55, cl__2};
Point(127) = {5.5, 1.6, 0.55, cl__1};
Point(128) = {5.5, 2.4, 0.55, cl__2};
Point(132) = {4.7, 2.4, 0.55, cl__2};
Point(136) = {5.5, 2.4, 2.45, cl__1};
Point(139) = {4.7, 1.6, 0.55, cl__1};
Point(143) = {5.5, 1.6, 2.45, cl__1};
Point(147) = {4.7, 1.6, 2.45, cl__1};
Point(156) = {4.7, 2.4, 2.45, cl__1};
Point(165) = {7.9, 1.6, 0.55, cl__1};
Point(170) = {7.9, 2.4, 0.55, cl__2};
Point(181) = {7.9, 1.6, 2.45, cl__1};
Point(186) = {7.9, 2.4, 2.45, cl__1};
Point(201) = {7.1, 1.6, 0.55, cl__1};
Point(206) = {7.1, 2.4, 0.55, cl__2};
Point(210) = {7.1, 2.4, 2.45, cl__1};
Point(217) = {7.1, 1.6, 2.45, cl__1};
Point(237) = {6.3, 1.6, 2.45, cl__1};
Point(242) = {6.3, 2.4, 2.45, cl__1};
Point(245) = {6.3, 1.6, 0.55, cl__1};
Point(250) = {6.3, 2.4, 0.55, cl__2};
Point(252) = {7.9, 6.4, 0.55, cl__1};
Point(253) = {7.1, 6.4, 0.55, cl__1};
Point(257) = {6.3, 6.4, 0.55, cl__1};
Point(261) = {5.5, 6.4, 0.55, cl__1};
Point(265) = {4.7, 6.4, 0.55, cl__1};
Point(269) = {3.9, 6.4, 0.55, cl__1};
Point(273) = {3.1, 6.4, 0.55, cl__1};
Point(281) = {2.3, 6.4, 2.45, cl__1};
Point(285) = {3.1, 6.4, 2.45, cl__1};
Point(289) = {3.9, 6.4, 2.45, cl__1};
Point(293) = {4.7, 6.4, 2.45, cl__1};
Point(297) = {5.5, 6.4, 2.45, cl__1};
Point(301) = {6.3, 6.4, 2.45, cl__1};
Point(305) = {7.1, 6.4, 2.45, cl__1};
Point(309) = {7.9, 6.4, 2.45, cl__1};
Point(312) = {7.9, 5.6, 0.55, cl__2};
Point(316) = {7.1, 5.6, 0.55, cl__2};
Point(320) = {6.3, 5.6, 0.55, cl__2};
Point(324) = {5.5, 5.6, 0.55, cl__2};
Point(328) = {4.7, 5.6, 0.55, cl__2};
Point(332) = {3.9, 5.6, 0.55, cl__2};
Point(336) = {3.1, 5.6, 0.55, cl__2};
Point(340) = {2.3, 5.6, 0.55, cl__2};
Point(344) = {2.3, 5.6, 2.45, cl__1};
Point(348) = {3.1, 5.6, 2.45, cl__1};
Point(352) = {3.9, 5.6, 2.45, cl__1};
Point(356) = {4.7, 5.6, 2.45, cl__1};
Point(360) = {5.5, 5.6, 2.45, cl__1};
Point(364) = {6.3, 5.6, 2.45, cl__1};
Point(368) = {7.1, 5.6, 2.45, cl__1};
Point(425) = {7.9, 5.6, 2.45, cl__1};
Point(427) = {2.3, 3.2, 0.55, cl__2};
Point(429) = {7.9, 3.2, 0.55, cl__2};
Point(463) = {7.9, 4.8, 0.55, cl__2};
Point(464) = {2.3, 4.8, 0.55, cl__2};
Point(465) = {2.3, 4.8, 0.5, cl__2};
Point(466) = {2.3, 5.6, 0.5, cl__2};
Point(469) = {7.9, 4.8, 0.5, cl__2};
Point(474) = {3.1, 5.6, 0.5, cl__2};
Point(478) = {3.9, 5.6, 0.5, cl__2};
Point(482) = {4.7, 5.6, 0.5, cl__2};
Point(486) = {5.5, 5.6, 0.5, cl__2};
Point(490) = {6.3, 5.6, 0.5, cl__2};
Point(494) = {7.1, 5.6, 0.5, cl__2};
Point(498) = {7.9, 5.6, 0.5, cl__2};
Point(499) = {7.9, 3.2, 0.5, cl__2};
Point(500) = {7.9, 2.4, 0.5, cl__2};
Point(503) = {2.3, 3.2, 0.5, cl__2};
Point(508) = {7.1, 2.4, 0.5, cl__2};
Point(512) = {6.3, 2.4, 0.5, cl__2};
Point(516) = {5.5, 2.4, 0.5, cl__2};
Point(520) = {4.7, 2.4, 0.5, cl__2};
Point(524) = {3.9, 2.4, 0.5, cl__2};
Point(528) = {3.1, 2.4, 0.5, cl__2};
Point(532) = {2.3, 2.4, 0.5, cl__2};
Point(542) = {9, 2.5, 0.55, cl__2};
Point(543) = {10, 2.5, 0.55, cl__2};
Point(547) = {10, 5.5, 0.55, cl__2};
Point(551) = {9, 5.5, 0.55, cl__2};
Point(558) = {10, 2.5, 0.5, cl__2};
Point(559) = {9, 2.5, 0.5, cl__2};
Point(579) = {9, 5.5, 0.5, cl__2};
Point(583) = {10, 5.5, 0.5, cl__2};
Point(584) = {9, 2.5, 3, cl__2};
Point(585) = {10, 2.5, 3, cl__2};
Point(589) = {10, 5.5, 3, cl__2};
Point(593) = {9, 5.5, 3, cl__2};
Point(594) = {9, 2.5, 2.25, cl__1};
Point(595) = {10, 2.5, 2.25, cl__1};
Point(599) = {10, 5.5, 2.25, cl__1};
Point(603) = {9, 5.5, 2.25, cl__1};
Point(610) = {0, 0, 2.25, cl__1};
Point(611) = {0, 8, 2.25, cl__1};
Point(615) = {10, 8, 2.25, cl__1};
Point(619) = {10, 0, 2.25, cl__1};
Point(620) = {9, 5.5, 3.05, cl__2};
Point(621) = {9, 2.5, 3.05, cl__2};
Point(625) = {10, 2.5, 3.05, cl__2};
Point(629) = {10, 5.5, 3.05, cl__2};
Point(646) = {10, 5.5, 3.5, cl__1};
Point(647) = {10, 2.5, 3.5, cl__1};
Point(651) = {9, 2.5, 3.5, cl__1};
Point(655) = {9, 5.5, 3.5, cl__1};
Point(688) = {2.3, 1.6, 3, cl__2};
Point(689) = {3.1, 1.6, 3, cl__2};
Point(693) = {3.9, 1.6, 3, cl__2};
Point(697) = {4.7, 1.6, 3, cl__2};
Point(701) = {5.5, 1.6, 3, cl__2};
Point(705) = {6.3, 1.6, 3, cl__2};
Point(709) = {7.1, 1.6, 3, cl__2};
Point(713) = {7.9, 1.6, 3, cl__2};
Point(717) = {7.9, 2.4, 3, cl__1};
Point(721) = {7.1, 2.4, 3, cl__1};
Point(725) = {6.3, 2.4, 3, cl__1};
Point(729) = {5.5, 2.4, 3, cl__1};
Point(733) = {4.7, 2.4, 3, cl__1};
Point(737) = {3.9, 2.4, 3, cl__1};
Point(741) = {3.1, 2.4, 3, cl__1};
Point(745) = {2.3, 2.4, 3, cl__1};
Point(752) = {2.3, 5.6, 3, cl__1};
Point(753) = {2.3, 6.4, 3, cl__2};
Point(757) = {3.1, 6.4, 3, cl__2};
Point(761) = {3.9, 6.4, 3, cl__2};
Point(765) = {4.7, 6.4, 3, cl__2};
Point(769) = {5.5, 6.4, 3, cl__2};
Point(773) = {6.3, 6.4, 3, cl__2};
Point(777) = {7.1, 6.4, 3, cl__2};
Point(781) = {7.9, 6.4, 3, cl__2};
Point(785) = {7.9, 5.6, 3, cl__1};
Point(789) = {7.1, 5.6, 3, cl__1};
Point(793) = {6.3, 5.6, 3, cl__1};
Point(797) = {5.5, 5.6, 3, cl__1};
Point(801) = {4.7, 5.6, 3, cl__1};
Point(805) = {3.9, 5.6, 3, cl__1};
Point(809) = {3.1, 5.6, 3, cl__1};
Point(811) = {2.3, 0.8, 3, cl__2};
Point(812) = {7.9, 0.8, 3, cl__2};
Point(813) = {7.9, 0.8, 3.05, cl__2};
Point(814) = {2.3, 0.8, 3.05, cl__2};
Point(818) = {2.3, 1.6, 3.05, cl__2};
Point(822) = {3.1, 1.6, 3.05, cl__2};
Point(826) = {3.9, 1.6, 3.05, cl__2};
Point(830) = {4.7, 1.6, 3.05, cl__2};
Point(834) = {5.5, 1.6, 3.05, cl__2};
Point(838) = {6.3, 1.6, 3.05, cl__2};
Point(842) = {7.1, 1.6, 3.05, cl__2};
Point(846) = {7.9, 1.6, 3.05, cl__2};
Point(852) = {2.3, 7.2, 3, cl__2};
Point(856) = {3.1, 7.2, 3, cl__1};
Point(860) = {3.9, 7.2, 3, cl__1};
Point(864) = {4.7, 7.2, 3, cl__1};
Point(868) = {5.5, 7.2, 3, cl__1};
Point(872) = {6.3, 7.2, 3, cl__1};
Point(876) = {7.1, 7.2, 3, cl__1};
Point(880) = {7.9, 7.2, 3, cl__2};
Point(887) = {7.9, 6.4, 3.05, cl__2};
Point(888) = {2.3, 6.4, 3.05, cl__2};
Point(892) = {2.3, 7.2, 3.05, cl__2};
Point(896) = {3.1, 7.2, 3.05, cl__2};
Point(900) = {3.9, 7.2, 3.05, cl__2};
Point(904) = {4.7, 7.2, 3.05, cl__2};
Point(908) = {5.5, 7.2, 3.05, cl__2};
Point(912) = {6.3, 7.2, 3.05, cl__2};
Point(916) = {7.1, 7.2, 3.05, cl__2};
Point(920) = {7.9, 7.2, 3.05, cl__2};
Point(921) = {0, 2.5, 0.55, cl__2};
Point(922) = {1, 2.5, 0.55, cl__2};
Point(925) = {1, 2.5, 0.5, cl__2};
Point(926) = {0, 2.5, 0.5, cl__2};
Point(929) = {0, 5.5, 0.55, cl__2};
Point(934) = {0, 5.5, 0.5, cl__2};
Point(938) = {0, 2.5, 2.25, cl__1};
Point(942) = {1, 2.5, 2.25, cl__1};
Point(945) = {1, 5.5, 0.5, cl__2};
Point(950) = {1, 5.5, 0.55, cl__2};
Point(962) = {0, 5.5, 2.25, cl__1};
Point(966) = {1, 5.5, 2.25, cl__1};
Point(977) = {1, 5.5, 3, cl__2};
Point(989) = {0, 2.5, 3, cl__2};
Point(990) = {1, 2.5, 3, cl__2};
Point(993) = {0, 2.5, 3.05, cl__2};
Point(994) = {1, 2.5, 3.05, cl__2};
Point(1001) = {0, 5.5, 3.05, cl__2};
Point(1005) = {0, 5.5, 3, cl__2};
Point(1010) = {0, 2.5, 3.5, cl__1};
Point(1013) = {1, 2.5, 3.5, cl__1};
Point(1018) = {0, 5.5, 3.5, cl__1};
Point(1021) = {1, 5.5, 3.5, cl__1};
Point(1030) = {1, 5.5, 3.05, cl__2};
Point(1043) = {7.1, 0.7999999999999998, 3.05, cl__2};
Point(1044) = {6.3, 0.7999999999999998, 3.05, cl__2};
Point(1045) = {5.5, 0.7999999999999998, 3.05, cl__2};
Point(1046) = {4.7, 0.7999999999999998, 3.05, cl__2};
Point(1047) = {3.9, 0.7999999999999998, 3.05, cl__2};
Point(1048) = {3.1, 0.7999999999999998, 3.05, cl__2};
Point(1049) = {7.1, 0.7999999999999998, 3, cl__1};
Point(1050) = {6.3, 0.7999999999999998, 3, cl__1};
Point(1051) = {5.5, 0.7999999999999998, 3, cl__1};
Point(1052) = {4.7, 0.7999999999999998, 3, cl__1};
Point(1053) = {3.9, 0.7999999999999998, 3, cl__1};
Point(1054) = {3.1, 0.7999999999999998, 3, cl__1};
Line(6) = {8, 12};
Line(8) = {7, 15};
Line(10) = {17, 21};
Line(11) = {16, 25};
Line(22) = {49, 46};
Line(23) = {53, 45};
Line(25) = {54, 55};
Line(27) = {62, 59};
Line(30) = {25, 55};
Line(31) = {25, 45};
Line(32) = {45, 15};
Line(35) = {12, 46};
Line(36) = {46, 21};
Line(37) = {21, 59};
Line(40) = {54, 16};
Line(41) = {16, 53};
Line(42) = {53, 7};
Line(45) = {8, 49};
Line(46) = {49, 17};
Line(47) = {17, 62};
Line(53) = {70, 71};
Line(54) = {71, 69};
Line(55) = {63, 70};
Line(56) = {63, 69};
Line(57) = {72, 73};
Line(58) = {72, 77};
Line(59) = {80, 77};
Line(60) = {73, 80};
Line(61) = {73, 70};
Line(62) = {71, 80};
Line(63) = {69, 77};
Line(64) = {63, 72};
Line(65) = {73, 82};
Line(67) = {82, 90};
Line(69) = {90, 80};
Line(76) = {82, 123};
Line(77) = {126, 90};
Line(78) = {126, 71};
Line(79) = {123, 126};
Line(80) = {70, 123};
Line(81) = {127, 128};
Line(82) = {128, 132};
Line(83) = {128, 136};
Line(84) = {139, 127};
Line(85) = {143, 127};
Line(86) = {147, 139};
Line(87) = {139, 132};
Line(88) = {132, 156};
Line(89) = {132, 126};
Line(90) = {123, 139};
Line(91) = {143, 136};
Line(92) = {136, 156};
Line(93) = {147, 143};
Line(94) = {147, 156};
Line(95) = {82, 147};
Line(96) = {156, 90};
Line(105) = {165, 170};
Line(106) = {181, 165};
Line(107) = {170, 186};
Line(108) = {201, 165};
Line(109) = {170, 206};
Line(110) = {186, 210};
Line(111) = {181, 186};
Line(112) = {217, 181};
Line(113) = {217, 201};
Line(114) = {201, 206};
Line(115) = {206, 210};
Line(116) = {217, 210};
Line(117) = {237, 217};
Line(118) = {210, 242};
Line(119) = {245, 201};
Line(120) = {206, 250};
Line(121) = {245, 250};
Line(122) = {250, 242};
Line(123) = {250, 128};
Line(124) = {127, 245};
Line(125) = {237, 245};
Line(126) = {242, 136};
Line(127) = {237, 242};
Line(128) = {143, 237};
Line(129) = {252, 253};
Line(130) = {253, 257};
Line(131) = {257, 261};
Line(132) = {261, 265};
Line(133) = {265, 269};
Line(134) = {269, 273};
Line(135) = {273, 68};
Line(136) = {68, 281};
Line(137) = {273, 285};
Line(138) = {269, 289};
Line(139) = {265, 293};
Line(140) = {261, 297};
Line(141) = {257, 301};
Line(142) = {253, 305};
Line(143) = {252, 309};
Line(144) = {312, 252};
Line(145) = {316, 253};
Line(146) = {320, 257};
Line(147) = {324, 261};
Line(148) = {328, 265};
Line(149) = {332, 269};
Line(150) = {336, 273};
Line(151) = {340, 68};
Line(152) = {344, 281};
Line(153) = {348, 285};
Line(154) = {352, 289};
Line(155) = {356, 293};
Line(156) = {360, 297};
Line(157) = {364, 301};
Line(158) = {368, 305};
Line(159) = {309, 305};
Line(160) = {305, 301};
Line(161) = {301, 297};
Line(162) = {297, 293};
Line(163) = {293, 289};
Line(164) = {289, 285};
Line(165) = {285, 281};
Line(166) = {344, 348};
Line(167) = {348, 352};
Line(168) = {352, 356};
Line(169) = {356, 360};
Line(170) = {360, 364};
Line(171) = {364, 368};
Line(172) = {368, 425};
Line(173) = {425, 312};
Line(174) = {368, 316};
Line(175) = {364, 320};
Line(176) = {360, 324};
Line(177) = {356, 328};
Line(178) = {352, 332};
Line(179) = {348, 336};
Line(180) = {340, 344};
Line(181) = {340, 336};
Line(182) = {336, 332};
Line(183) = {332, 328};
Line(184) = {328, 324};
Line(185) = {324, 320};
Line(186) = {320, 316};
Line(187) = {316, 312};
Line(188) = {425, 309};
Line(189) = {427, 429};
Line(190) = {429, 170};
Line(191) = {427, 69};
Line(192) = {463, 312};
Line(193) = {463, 464};
Line(194) = {464, 340};
Line(195) = {465, 466};
Line(196) = {469, 465};
Line(197) = {466, 474};
Line(198) = {474, 478};
Line(199) = {478, 482};
Line(200) = {482, 486};
Line(201) = {486, 490};
Line(202) = {490, 494};
Line(203) = {494, 498};
Line(204) = {469, 498};
Line(205) = {499, 500};
Line(206) = {503, 499};
Line(207) = {500, 508};
Line(208) = {508, 512};
Line(209) = {512, 516};
Line(210) = {516, 520};
Line(211) = {520, 524};
Line(212) = {524, 528};
Line(213) = {528, 532};
Line(214) = {503, 532};
Line(223) = {340, 466};
Line(224) = {465, 464};
Line(225) = {469, 463};
Line(226) = {498, 312};
Line(235) = {503, 427};
Line(236) = {532, 69};
Line(237) = {500, 170};
Line(238) = {429, 499};
Line(341) = {542, 543};
Line(342) = {543, 547};
Line(343) = {547, 551};
Line(344) = {551, 542};
Line(346) = {558, 559};
Line(347) = {559, 542};
Line(349) = {543, 558};
Line(352) = {559, 579};
Line(353) = {579, 583};
Line(354) = {583, 558};
Line(357) = {579, 551};
Line(363) = {583, 547};
Line(745) = {62, 36};
Line(746) = {54, 35};
Line(747) = {55, 44};
Line(748) = {59, 40};
Line(911) = {584, 585};
Line(912) = {585, 589};
Line(913) = {589, 593};
Line(914) = {593, 584};
Line(954) = {594, 595};
Line(955) = {595, 599};
Line(956) = {599, 603};
Line(957) = {603, 594};
Line(959) = {611, 615};
Line(961) = {619, 610};
Line(995) = {542, 594};
Line(996) = {543, 595};
Line(1000) = {547, 599};
Line(1004) = {551, 603};
Line(1011) = {49, 610};
Line(1012) = {53, 611};
Line(1016) = {45, 615};
Line(1020) = {46, 619};
Line(1164) = {16, 611};
Line(1165) = {17, 610};
Line(1169) = {21, 619};
Line(1173) = {25, 615};
Line(1180) = {35, 44};
Line(1183) = {36, 40};
Line(1282) = {620, 621};
Line(1283) = {621, 625};
Line(1284) = {625, 629};
Line(1285) = {629, 620};
Line(1287) = {593, 620};
Line(1288) = {584, 621};
Line(1292) = {585, 625};
Line(1296) = {589, 629};
Line(1330) = {593, 603};
Line(1331) = {589, 599};
Line(1335) = {585, 595};
Line(1780) = {646, 647};
Line(1781) = {647, 651};
Line(1782) = {651, 655};
Line(1783) = {655, 646};
Line(1801) = {629, 646};
Line(1802) = {625, 647};
Line(1806) = {621, 651};
Line(1810) = {620, 655};
Line(1822) = {12, 4};
Line(1823) = {4, 2};
Line(1824) = {2, 8};
Line(1825) = {6, 7};
Line(1826) = {6, 2};
Line(1827) = {6, 5};
Line(1828) = {5, 15};
Line(1829) = {5, 4};
Line(2097) = {688, 689};
Line(2098) = {689, 693};
Line(2099) = {693, 697};
Line(2100) = {697, 701};
Line(2101) = {701, 705};
Line(2102) = {705, 709};
Line(2103) = {709, 713};
Line(2104) = {713, 717};
Line(2105) = {717, 721};
Line(2106) = {721, 725};
Line(2107) = {725, 729};
Line(2108) = {729, 733};
Line(2109) = {733, 737};
Line(2110) = {737, 741};
Line(2111) = {741, 745};
Line(2112) = {745, 688};
Line(2113) = {752, 753};
Line(2114) = {753, 757};
Line(2115) = {757, 761};
Line(2116) = {761, 765};
Line(2117) = {765, 769};
Line(2118) = {769, 773};
Line(2119) = {773, 777};
Line(2120) = {777, 781};
Line(2121) = {781, 785};
Line(2122) = {785, 789};
Line(2123) = {789, 793};
Line(2124) = {793, 797};
Line(2125) = {797, 801};
Line(2126) = {801, 805};
Line(2127) = {805, 809};
Line(2128) = {809, 752};
Line(2162) = {72, 688};
Line(2163) = {73, 689};
Line(2167) = {82, 693};
Line(2171) = {147, 697};
Line(2175) = {143, 701};
Line(2179) = {237, 705};
Line(2183) = {217, 709};
Line(2187) = {181, 713};
Line(2191) = {186, 717};
Line(2195) = {210, 721};
Line(2199) = {242, 725};
Line(2203) = {136, 729};
Line(2207) = {156, 733};
Line(2211) = {90, 737};
Line(2215) = {80, 741};
Line(2219) = {77, 745};
Line(2226) = {344, 752};
Line(2227) = {281, 753};
Line(2231) = {285, 757};
Line(2235) = {289, 761};
Line(2239) = {293, 765};
Line(2243) = {297, 769};
Line(2247) = {301, 773};
Line(2251) = {305, 777};
Line(2255) = {309, 781};
Line(2259) = {425, 785};
Line(2263) = {368, 789};
Line(2267) = {364, 793};
Line(2271) = {360, 797};
Line(2275) = {356, 801};
Line(2279) = {352, 805};
Line(2283) = {348, 809};
Line(2567) = {474, 336};
Line(2571) = {478, 332};
Line(2575) = {482, 328};
Line(2579) = {486, 324};
Line(2583) = {490, 320};
Line(2587) = {494, 316};
Line(2625) = {508, 206};
Line(2629) = {512, 250};
Line(2633) = {516, 128};
Line(2637) = {520, 132};
Line(2641) = {524, 126};
Line(2645) = {528, 71};
Line(2660) = {688, 811};
Line(2661) = {812, 713};
Line(2662) = {812, 811};
Line(2666) = {813, 814};
Line(2667) = {814, 818};
Line(2668) = {818, 822};
Line(2669) = {822, 826};
Line(2670) = {826, 830};
Line(2671) = {830, 834};
Line(2672) = {834, 838};
Line(2673) = {838, 842};
Line(2674) = {842, 846};
Line(2675) = {846, 813};
Line(2677) = {812, 813};
Line(2678) = {811, 814};
Line(2682) = {688, 818};
Line(2686) = {689, 822};
Line(2690) = {693, 826};
Line(2694) = {697, 830};
Line(2698) = {701, 834};
Line(2702) = {705, 838};
Line(2706) = {709, 842};
Line(2710) = {713, 846};
Line(2719) = {781, 753};
Line(2720) = {753, 852};
Line(2721) = {852, 856};
Line(2722) = {856, 860};
Line(2723) = {860, 864};
Line(2724) = {864, 868};
Line(2725) = {868, 872};
Line(2726) = {872, 876};
Line(2727) = {876, 880};
Line(2728) = {880, 781};
Line(2730) = {887, 888};
Line(2731) = {888, 892};
Line(2732) = {892, 896};
Line(2733) = {896, 900};
Line(2734) = {900, 904};
Line(2735) = {904, 908};
Line(2736) = {908, 912};
Line(2737) = {912, 916};
Line(2738) = {916, 920};
Line(2739) = {920, 887};
Line(2742) = {753, 888};
Line(2744) = {887, 781};
Line(2747) = {852, 892};
Line(2752) = {856, 896};
Line(2757) = {860, 900};
Line(2762) = {864, 904};
Line(2767) = {868, 908};
Line(2772) = {872, 912};
Line(2777) = {876, 916};
Line(2782) = {880, 920};
Line(2914) = {584, 594};
Line(2934) = {40, 647};
Line(2935) = {59, 625};
Line(2936) = {21, 585};
Line(2937) = {46, 543};
Line(2938) = {558, 12};
Line(2939) = {583, 15};
Line(2940) = {45, 547};
Line(2941) = {599, 615};
Line(2942) = {589, 25};
Line(2943) = {55, 629};
Line(2944) = {646, 44};
Line(2945) = {921, 922};
Line(2946) = {925, 926};
Line(2947) = {929, 921};
Line(2948) = {926, 934};
Line(2949) = {921, 938};
Line(2950) = {922, 942};
Line(2951) = {945, 925};
Line(2952) = {922, 950};
Line(2953) = {950, 929};
Line(2954) = {934, 945};
Line(2955) = {929, 962};
Line(2956) = {950, 966};
Line(2957) = {942, 966};
Line(2958) = {966, 962};
Line(2959) = {977, 966};
Line(2960) = {962, 938};
Line(2961) = {938, 942};
Line(2962) = {989, 990};
Line(2963) = {993, 994};
Line(2964) = {990, 942};
Line(2965) = {1001, 993};
Line(2966) = {1005, 989};
Line(2967) = {993, 1010};
Line(2968) = {1013, 1010};
Line(2969) = {1010, 1018};
Line(2970) = {1021, 1013};
Line(2971) = {990, 977};
Line(2972) = {994, 1030};
Line(2973) = {1005, 962};
Line(2974) = {1030, 1001};
Line(2975) = {977, 1005};
Line(2976) = {1001, 1018};
Line(2977) = {1018, 1021};
Line(2978) = {1030, 1021};
Line(2979) = {989, 938};
Line(2980) = {7, 934};
Line(2981) = {926, 8};
Line(2982) = {49, 921};
Line(2983) = {921, 926};
Line(2984) = {922, 925};
Line(2985) = {929, 934};
Line(2986) = {950, 945};
Line(2987) = {53, 929};
Line(2988) = {938, 610};
Line(2989) = {962, 611};
Line(2990) = {1005, 1001};
Line(2991) = {1005, 16};
Line(2992) = {54, 1001};
Line(2993) = {989, 993};
Line(2994) = {989, 17};
Line(2995) = {62, 993};
Line(2996) = {1010, 36};
Line(2997) = {1018, 35};
Line(2998) = {994, 1013};
Line(2999) = {994, 990};
Line(3000) = {1030, 977};
Line(3083) = {595, 619};
Line Loop(2815) = {46, 10, -36, -22};
Plane Surface(2815) = {2815};
Line Loop(2819) = {31, -23, -41, 11};
Plane Surface(2819) = {2819};
Line Loop(2868) = {1827, 1828, -8, -1825};
Plane Surface(2868) = {2868};
Line Loop(2872) = {6, 1822, 1823, 1824};
Plane Surface(2872) = {2872};
Line Loop(3002) = {1824, -2981, 2948, -2980, -1825, 1826};
Plane Surface(3002) = {3002};
Line Loop(3004) = {1822, -1829, 1828, -2939, 354, 2938};
Plane Surface(3004) = {3004};
Line Loop(3005) = {1823, -1826, 1827, 1829};
Plane Surface(3005) = {3005};
Line Loop(3010) = {6, -2938, 346, 352, 353, 2939, -8, 2980, 2954, 2951, 2946, 2981, -196, 204, -203, -202, -201, -200, -199, -198, -197, -195, 214, -213, -212, -211, -210, -209, -208, -207, -205, -206};
Plane Surface(3010) = {3010};
Line Loop(3014) = {2982, 2945, 2952, 2953, -2987, 23, 2940, 343, 344, 341, -2937, -22, 193, 194, 151, -135, -134, -133, -132, -131, -130, -129, -144, -192, -108, -119, -124, -84, -90, -80, -55, 56, -191, 189, 190, -105};
Plane Surface(3014) = {3014};
Line Loop(3028) = {352, 353, 354, 346};
Plane Surface(3028) = {3028};
Line Loop(3038) = {2954, 2951, 2946, 2948};
Plane Surface(3038) = {3038};
Line Loop(3040) = {151, 136, -152, -180};
Plane Surface(3040) = {3040};
Line Loop(3042) = {180, 166, 167, 168, 169, 170, 171, 172, 173, -187, -186, -185, -184, -183, -182, -181};
Plane Surface(3042) = {3042};
Line Loop(3044) = {135, 136, -165, -164, -163, -162, -161, -160, -159, -143, 129, 130, 131, 132, 133, 134};
Plane Surface(3044) = {3044};
Line Loop(3046) = {144, 143, -188, 173};
Plane Surface(3046) = {3046};
Line Loop(3048) = {172, 188, 159, 160, 161, 162, 163, 164, 165, -152, 166, 167, 168, 169, 170, 171};
Plane Surface(3048) = {3048};
Line Loop(3050) = {56, 63, -58, -64};
Plane Surface(3050) = {3050};
Line Loop(3052) = {55, 80, 90, 84, 124, 119, 108, -106, -112, -117, -128, -93, -95, -65, -57, -64};
Plane Surface(3052) = {3052};
Line Loop(3054) = {63, -59, -69, -96, -92, -126, -118, -110, -107, 109, 120, 123, 82, 89, 78, 54};
Plane Surface(3054) = {3054};
Line Loop(3056) = {59, -58, 57, 65, 95, 93, 128, 117, 112, 111, 110, 118, 126, 92, 96, 69};
Plane Surface(3056) = {3056};
Line Loop(3058) = {105, 107, -111, 106};
Plane Surface(3058) = {3058};
Line Loop(3060) = {190, 109, 120, 123, 82, 89, 78, 54, -191, 189};
Plane Surface(3060) = {3060};
Line Loop(3062) = {206, 205, 207, 208, 209, 210, 211, 212, 213, -214};
Plane Surface(3062) = {3062};
Line Loop(3064) = {206, -238, -189, -235};
Plane Surface(3064) = {3064};
Line Loop(3066) = {205, 237, -190, 238};
Plane Surface(3066) = {3066};
Line Loop(3068) = {109, 120, 123, 82, 89, 78, 54, -236, -213, -212, -211, -210, -209, -208, -207, 237};
Plane Surface(3068) = {3068};
Line Loop(3070) = {191, -236, -214, 235};
Plane Surface(3070) = {3070};
Line Loop(3072) = {204, 226, -192, -225};
Plane Surface(3072) = {3072};
Line Loop(3074) = {187, -226, -203, -202, -201, -200, -199, -198, -197, -223, 181, 182, 183, 184, 185, 186};
Plane Surface(3074) = {3074};
Line Loop(3076) = {194, 223, -195, 224};
Plane Surface(3076) = {3076};
Line Loop(3078) = {193, -224, -196, 225};
Plane Surface(3078) = {3078};
Line Loop(3080) = {204, -203, -202, -201, -200, -199, -198, -197, -195, -196};
Plane Surface(3080) = {3080};
Line Loop(3082) = {194, 181, 182, 183, 184, 185, 186, 187, -192, 193};
Plane Surface(3082) = {3082};
Line Loop(3088) = {914, 911, 912, 913};
Plane Surface(3088) = {3088};
Line Loop(3090) = {2975, 2966, 2962, 2971};
Plane Surface(3090) = {3090};
Line Loop(3101) = {2945, 2950, -2964, -2962, 2979, -2949};
Plane Surface(3101) = {3101};
Line Loop(3103) = {2950, -2964, 2971, 2959, -2956, -2952};
Plane Surface(3103) = {3103};
Line Loop(3105) = {2953, 2955, -2973, -2975, 2959, -2956};
Plane Surface(3105) = {3105};
Line Loop(3107) = {2995, -2965, -2992, 746, -2997, -2969, 2996, -745};
Plane Surface(3107) = {3107};
Line Loop(3109) = {746, 1180, -747, -25};
Plane Surface(3109) = {3109};
Line Loop(3111) = {2944, -747, 2943, -1284, -2935, 748, 2934, -1780};
Plane Surface(3111) = {3111};
Line Loop(3113) = {1183, -748, -27, 745};
Plane Surface(3113) = {3113};
Line Loop(3115) = {2996, 1183, 2934, -1780, 2944, -1180, -2997, -2969};
Plane Surface(3115) = {3115};
Line Loop(3121) = {2732, 2733, 2734, 2735, 2736, 2737, 2738, -2782, -2727, -2726, -2725, -2724, -2723, -2722, -2721, 2747};
Plane Surface(3121) = {3121};
Line Loop(3123) = {2731, -2747, -2720, 2742};
Plane Surface(3123) = {3123};
Line Loop(3125) = {2114, 2115, 2116, 2117, 2118, 2119, 2120, -2744, 2730, -2742};
Plane Surface(3125) = {3125};
Line Loop(3127) = {2739, 2744, -2728, 2782};
Plane Surface(3127) = {3127};
Line Loop(3129) = {2720, 2721, 2722, 2723, 2724, 2725, 2726, 2727, 2728, -2120, -2119, -2118, -2117, -2116, -2115, -2114};
Plane Surface(3129) = {3129};
Line Loop(3130) = {2731, 2732, 2733, 2734, 2735, 2736, 2737, 2738, 2739, 2730};
Plane Surface(3130) = {3130};
Line Loop(3134) = {2666, -2678, -2662, 2677};
Plane Surface(3134) = {3134};
Line Loop(3136) = {2667, -2682, 2660, 2678};
Plane Surface(3136) = {3136};
Line Loop(3138) = {2668, 2669, 2670, 2671, 2672, 2673, 2674, -2710, -2103, -2102, -2101, -2100, -2099, -2098, -2097, 2682};
Plane Surface(3138) = {3138};
Line Loop(3140) = {2661, 2710, 2675, -2677};
Plane Surface(3140) = {3140};
Line Loop(3141) = {2675, 2666, 2667, 2668, 2669, 2670, 2671, 2672, 2673, 2674};
Plane Surface(3141) = {3141};
Line Loop(3143) = {2660, -2662, 2661, -2103, -2102, -2101, -2100, -2099, -2098, -2097};
Plane Surface(3143) = {3143};
Line Loop(3146) = {2942, -11, -2991, -2975, -2971, -2962, 2994, 10, 2936, -911, -914, -913, 2114, 2115, 2116, 2117, 2118, 2119, 2120, -2728, -2727, -2726, -2725, -2724, -2723, -2722, -2721, -2720, 2097, 2098, 2099, 2100, 2101, 2102, 2103, -2661, 2662, -2660};
Plane Surface(3146) = {3146};
Line Loop(3147) = {2995, 2963, 2972, 2974, -2992, 25, 2943, 1285, 1282, 1283, -2935, -27, -2674, -2673, -2672, -2671, -2670, -2669, -2668, -2667, -2666, -2675, -2730, -2739, -2738, -2737, -2736, -2735, -2734, -2733, -2732, -2731};
Plane Surface(3147) = {3147};
Line Loop(3149) = {2963, 2972, 2974, 2965};
Plane Surface(3149) = {3149};
Line Loop(3151) = {1283, 1284, 1285, 1282};
Plane Surface(3151) = {3151};
Line Loop(3155) = {343, 1004, -1330, -913, 1331, -1000};
Plane Surface(3155) = {3155};
Line Loop(3157) = {344, 995, -2914, -914, 1330, -1004};
Plane Surface(3157) = {3157};
Line Loop(3159) = {341, 996, -1335, -911, 2914, -995};
Plane Surface(3159) = {3159};
Line Loop(3161) = {2947, 2945, 2952, 2953};
Plane Surface(3161) = {3161};
Line Loop(3163) = {344, 341, 342, 343};
Plane Surface(3163) = {3163};
Line Loop(3168) = {2940, 1000, -1331, 2942, 31};
Plane Surface(3168) = {3168};
Line Loop(3170) = {2937, 996, -1335, -2936, -36};
Plane Surface(3170) = {3170};
Line Loop(3172) = {2982, 2949, -2979, 2994, -46};
Plane Surface(3172) = {3172};
Line Loop(3174) = {2955, -2973, 2991, 41, 2987};
Plane Surface(3174) = {3174};
Surface Loop(3092) = {3002, 3004, 2868, 3010, 3005, 2872, 3038, 3062, 3028, 3080};
Volume(3092) = {3092};
Surface Loop(3094) = {3068, 3070, 3064, 3066, 3062, 3060};
Volume(3094) = {3094};
Surface Loop(3096) = {3072, 3074, 3076, 3078, 3080, 3082};
Volume(3096) = {3096};
Surface Loop(3132) = {3125, 3130, 3121, 3129, 3123, 3127};
Volume(3132) = {3132};
Surface Loop(3145) = {3136, 3134, 3140, 3141, 3143, 3138};
Volume(3145) = {3145};
Surface Loop(3153) = {3130, 3141, 3113, 3115, 3109, 3111, 3147, 3107, 3149, 3151};
Volume(3153) = {3153};
Surface Loop(3176) = {3050, 3159, 3048, 3168, 3052, 3046, 2819, 2815, 3054, 3146, 3042, 3014, 3101, 3103, 3174, 3155, 3157, 3056, 3105, 3143, 3170, 3172, 3129, 3040, 3082, 3044, 3058, 3060};
Volume(3176) = {3176};
Physical Surface("inlet_crack1") = {3038};
Physical Surface("inlet_crack2") = {3028};
Physical Surface("outlet_rack_left") = {3054};
Physical Surface("outlet_rack_right") = {3042};
Physical Surface("inlet_rack_right") = {3044};
Physical Surface("inlet_rack_left") = {3052};
Physical Surface("outlet_crack1") = {3149};
Physical Surface("outlet_crack2") = {3151};
Physical Volume(3177) = {3092, 3094, 3096, 3132, 3145, 3153, 3176};
Point(1055) = {2.3, 4, 3, 0.6};
Point(1056) = {2.3, 4, 3.05, 0.6};
Point(1057) = {7.9, 4, 3.05, 0.6};
Point(1058) = {7.9, 4, 3., 0.6};
Line(3178) = {1058, 1055};
Line(3179) = {1056, 1057};

Line{3178} In Surface{3146};
Line{3179} In Surface{3147};

Point(1059) = {2.3, 4, 0.5, 0.6};
Point(1060) = {2.3, 4, 0.55, 0.6};
Point(1061) = {7.9, 4, 0.55, 0.6};
Point(1062) = {7.9, 4, 0.5, 0.6};
Line(3180) = {1059, 1062};
Line(3181) = {1060, 1061};

Line{3180} In Surface{3010};
Line{3181} In Surface{3014};